<svg width="65" height="65" viewBox="0 0 65 65" fill="none" xmlns="http://www.w3.org/2000/svg">
<g clip-path="url(#clip0)">
<path d="M9.69587 57.4058H48.314L46.4696 51.434L50.8815 55.2202L54.925 58.844L62.2917 65V6.70312C62.1075 3.07937 58.9875 0 55.12 0L9.70941 0.008125C5.84462 0.008125 2.70837 3.09292 2.70837 6.71667V50.7C2.70837 54.5215 5.83921 57.4058 9.69587 57.4058ZM38.2634 15.3915L38.174 15.424L38.2065 15.3915H38.2634ZM17.5961 18.8283C22.5605 15.2154 27.1619 15.3888 27.1619 15.3888L27.533 15.7544C21.4582 17.2033 18.7038 19.9171 18.7038 19.9171C18.7038 19.9171 19.4405 19.5569 20.7269 19.0071C28.9088 15.7896 37.8436 16.0225 46.1148 20.0958C46.1148 20.0958 43.355 17.5581 37.654 15.9331L38.1577 15.4375C38.9459 15.4402 43.1167 15.5865 47.58 18.85C47.58 18.85 52.5742 27.3812 52.5742 37.8625C52.409 37.6621 49.4759 42.3746 41.9277 42.5371C41.9277 42.5371 40.6494 41.0908 39.7394 39.8288C44.154 38.5612 45.8061 36.0262 45.8061 36.0262C44.3571 36.939 43.0355 37.4806 41.963 38.0223C40.3136 38.7481 38.6615 39.1056 37.0121 39.4712C29.2013 40.7388 24.8165 38.6181 20.6727 36.9362L19.2563 36.2158C19.2563 36.2158 20.9057 38.7508 25.1442 40.0183C24.0311 41.2885 22.9288 42.7321 22.9288 42.7321C15.3834 42.5533 12.6317 37.8408 12.6317 37.8408C12.6317 27.3433 17.5961 18.8283 17.5961 18.8283Z" fill="#1253DC"/>
<path d="M38.7509 34.5893C40.6765 34.5893 42.2446 32.9643 42.2446 30.9601C42.2446 28.9695 40.6846 27.3445 38.7509 27.3445V27.3526C36.8334 27.3526 35.2626 28.9722 35.2572 30.9764C35.2572 32.9643 36.8253 34.5893 38.7509 34.5893Z" fill="#1253DC"/>
<path d="M26.2439 34.5893C28.1695 34.5893 29.7376 32.9643 29.7376 30.9601C29.7376 28.9695 28.1803 27.3445 26.2547 27.3445L26.2439 27.3526C24.3182 27.3526 22.7501 28.9722 22.7501 30.9764C22.7501 32.9643 24.3182 34.5893 26.2439 34.5893Z" fill="#1253DC"/>
</g>
<defs>
<clipPath id="clip0">
<rect width="65" height="65" fill="white"/>
</clipPath>
</defs>
</svg>
