<svg width="51" height="56" viewBox="0 0 51 56" fill="none" xmlns="http://www.w3.org/2000/svg">
<path d="M48.1944 3.98267C46.3238 1.98239 44.0721 0.982056 41.4374 0.982056H9.56246C6.92858 0.982056 4.67604 1.98239 2.80542 3.98267C0.935255 5.98333 0 8.39261 0 11.2099V45.3032C0 48.1206 0.935255 50.5296 2.80542 52.5299C4.67593 54.5306 6.92858 55.5309 9.56246 55.5309H17C17.4865 55.5309 17.8521 55.513 18.0955 55.4782C18.3388 55.4424 18.5821 55.2884 18.8257 55.0158C19.0695 54.7438 19.1909 54.3471 19.1909 53.8264C19.1909 53.7558 19.1851 52.95 19.1741 51.4112C19.1628 49.8719 19.1574 48.6527 19.1574 47.7529L18.3937 47.8951C17.9067 47.9896 17.2924 48.0313 16.5508 48.0194C15.8096 48.0074 15.0401 47.9248 14.2434 47.7708C13.4462 47.6167 12.7049 47.2617 12.0186 46.7058C11.3327 46.1489 10.8458 45.4211 10.558 44.5217L10.2258 43.7043C10.0045 43.1604 9.65608 42.5563 9.18008 41.894C8.70408 41.2307 8.22273 40.7808 7.7358 40.5441L7.50332 40.3665C7.34853 40.2482 7.20467 40.1055 7.07175 39.94C6.93905 39.7739 6.8395 39.608 6.7731 39.4428C6.70669 39.2767 6.76182 39.1405 6.93905 39.0337C7.11629 38.9273 7.43692 38.8746 7.90199 38.8746L8.5658 38.9809C9.00866 39.0755 9.55618 39.3593 10.2095 39.8331C10.8624 40.3065 11.3991 40.922 11.8198 41.6794C12.3292 42.6504 12.9428 43.3898 13.6626 43.8989C14.3818 44.4085 15.1069 44.663 15.8372 44.663C16.5676 44.663 17.1984 44.6038 17.7298 44.4859C18.2607 44.3672 18.7588 44.1892 19.2239 43.9525C19.4231 42.3664 19.9655 41.1464 20.8506 40.2942C19.5891 40.152 18.4547 39.9392 17.4472 39.6549C16.4403 39.3705 15.3998 38.9092 14.3264 38.2697C13.2525 37.6303 12.3617 36.8377 11.6534 35.8901C10.9451 34.9425 10.3639 33.6997 9.91042 32.1612C9.45675 30.6219 9.22986 28.846 9.22986 26.8338C9.22986 23.9693 10.1045 21.5303 11.8532 19.518C11.034 17.3636 11.1113 14.949 12.0854 12.2734C12.7274 12.0602 13.6794 12.2202 14.9409 12.7529C16.2028 13.286 17.1266 13.7419 17.7134 14.1202C18.3003 14.4986 18.7705 14.8185 19.1247 15.0792C21.1837 14.4636 23.3086 14.1559 25.4998 14.1559C27.691 14.1559 29.8162 14.4636 31.8753 15.0792L33.137 14.2269C34.0006 13.6585 35.0187 13.1377 36.192 12.6644C37.3652 12.1909 38.2615 12.0606 38.8816 12.2738C39.8773 14.9494 39.9664 17.364 39.1466 19.5183C40.8952 21.5307 41.7701 23.9696 41.7701 26.8342C41.7701 28.8468 41.5433 30.6286 41.0896 32.179C40.6363 33.7298 40.05 34.9731 39.33 35.9083C38.6108 36.8436 37.7142 37.6302 36.6408 38.2699C35.5671 38.9089 34.5267 39.3711 33.5194 39.6546C32.5121 39.939 31.3779 40.1527 30.1162 40.2948C31.2665 41.3599 31.8419 43.0403 31.8419 45.3373V53.8253C31.8419 54.2279 31.8968 54.5532 32.0075 54.8019C32.1189 55.0504 32.2957 55.2216 32.5391 55.317C32.7836 55.4115 32.9984 55.4706 33.187 55.4941C33.3756 55.5179 33.6463 55.5298 34.0005 55.5298H41.438C44.0719 55.5298 46.3245 54.5295 48.1942 52.5288C50.0647 50.5281 51 48.1187 51 45.3016V11.2099C50.9998 8.39261 50.0645 5.98296 48.1944 3.98267Z" fill="#1E266D"/>
</svg>
