<svg width="24" height="24" viewBox="0 0 24 24" fill="none" xmlns="http://www.w3.org/2000/svg">
<g clip-path="url(#clip0)">
<path d="M8.95368 21.8454C7.91583 21.8454 6.8476 21.7613 5.77295 21.5929C3.88019 21.2959 1.96417 20.3058 1.422 20.0094L0 19.2319L1.53955 18.7256C3.22247 18.1723 4.24622 17.829 5.51349 17.2914C4.24457 16.6769 3.2666 15.5714 2.79584 14.1425L2.43768 13.0552L2.73138 13.1001C2.45288 12.8194 2.23297 12.5345 2.0625 12.2754C1.45624 11.3545 1.13525 10.2293 1.20355 9.26511L1.27094 8.31607L1.83911 8.53617C1.59943 8.08353 1.42621 7.60013 1.3244 7.09348C1.07629 5.85788 1.28394 4.5452 1.90924 3.39731L2.40418 2.48874L3.0661 3.28379C5.15955 5.79856 7.8111 7.29032 10.9581 7.72702C10.8296 6.84098 10.9259 5.98587 11.2447 5.21939C11.6158 4.32694 12.2761 3.57016 13.1536 3.03073C14.1281 2.4318 15.3098 2.14157 16.4811 2.21353C17.7239 2.28989 18.8522 2.75553 19.7483 3.56101C20.1859 3.4473 20.5084 3.3259 20.9442 3.16184C21.2064 3.06314 21.5037 2.95108 21.8758 2.82291L23.2469 2.3505L22.3528 4.90409C22.4117 4.89914 22.4725 4.89493 22.5361 4.89218L24.0002 4.8259L23.1348 6.00858C23.0852 6.07633 23.0726 6.09555 23.055 6.1221C22.9852 6.22721 22.8984 6.35794 21.7106 7.944C21.4133 8.34116 21.2648 8.85843 21.2924 9.40079C21.3977 11.4618 21.1448 13.3266 20.5404 14.943C19.9688 16.4723 19.0829 17.7845 17.9077 18.843C16.4535 20.1526 14.5992 21.0492 12.3961 21.5077C11.3154 21.7326 10.1548 21.8454 8.95368 21.8454Z" fill="white"/>
</g>
<defs>
<clipPath id="clip0">
<rect width="24.0001" height="24" fill="white"/>
</clipPath>
</defs>
</svg>
