<svg width="24" height="24" viewBox="0 0 24 24" fill="none" xmlns="http://www.w3.org/2000/svg">
<path d="M23.0645 5.00484C22.1982 3.97501 20.5987 3.55493 17.5441 3.55493H6.45569C3.33112 3.55493 1.70454 4.00211 0.841471 5.09852C0 6.16753 0 7.74262 0 9.9226V14.0776C0 18.3009 0.9984 20.4452 6.45569 20.4452H17.5442C20.1931 20.4452 21.661 20.0745 22.6106 19.1657C23.5845 18.2337 24 16.712 24 14.0776V9.9226C24 7.62363 23.9349 6.03924 23.0645 5.00484ZM15.4081 12.5737L10.3729 15.2053C10.2603 15.2641 10.1372 15.2933 10.0143 15.2933C9.87507 15.2933 9.73618 15.2559 9.61316 15.1814C9.38152 15.041 9.24008 14.79 9.24008 14.5191V9.27289C9.24008 9.00255 9.38113 8.75171 9.61231 8.61127C9.84356 8.47083 10.1312 8.46123 10.3711 8.58587L15.4063 11.2005C15.6625 11.3335 15.8234 11.598 15.8237 11.8865C15.8241 12.1753 15.6639 12.4401 15.4081 12.5737Z" fill="white"/>
</svg>
